<svg xmlns="http://www.w3.org/2000/svg" viewBox="0 0 730 614" width="730" height="614"><path fill-rule="evenodd" fill="currentColor" d="M288.5 606.5C270.3 606.1 256.4 605.4 254.0 604.7C251.8 604.1 245.6 603.5 240.3 603.5C235.0 603.5 229.4 603.0 227.9 602.4C226.3 601.9 220.3 601.0 214.5 600.4C197.1 598.8 191.1 598.0 188.8 596.7C187.6 596.0 184.5 595.5 181.8 595.5C179.2 595.4 175.9 594.8 174.5 594.0C172.9 593.1 169.0 592.6 163.9 592.5C156.4 592.5 155.5 592.3 152.0 589.5C149.9 587.9 147.4 586.5 146.3 586.5C145.3 586.5 142.1 585.3 139.2 583.8C136.3 582.4 132.7 580.9 131.0 580.4C115.9 576.6 82.1 559.5 67.2 548.1C64.7 546.2 61.4 544.0 59.8 543.2C58.2 542.4 50.8 535.5 43.2 527.8C26.0 510.5 15.6 494.0 12.6 479.5C12.2 477.6 11.3 475.0 10.7 473.8C10.0 472.6 9.5 470.3 9.5 468.7C9.5 467.1 8.8 463.8 8.0 461.5C5.9 455.6 5.9 428.0 8.0 421.1C8.8 418.4 9.5 414.2 9.5 411.8C9.5 409.4 10.0 406.4 10.7 405.2C11.3 404.0 12.2 401.2 12.6 399.0C13.9 391.7 29.2 357.8 33.3 353.2C34.9 351.4 36.8 348.5 41.0 341.5C42.1 339.7 46.0 334.8 49.7 330.8C53.4 326.8 57.7 321.8 59.2 319.7C60.7 317.7 68.9 308.8 77.4 300.0C93.4 283.5 95.1 281.4 100.6 271.0C102.3 267.7 104.5 263.9 105.5 262.5C106.4 261.1 111.2 252.4 116.0 243.0C120.8 233.6 126.0 224.2 127.5 222.0C129.0 219.8 131.0 216.4 132.0 214.5C135.3 208.1 157.7 175.0 161.5 171.0C163.5 168.8 166.6 165.0 168.2 162.5C172.2 156.7 208.4 120.7 215.5 115.5C236.1 100.7 255.4 89.2 269.5 83.5C289.9 75.3 295.0 73.5 300.0 72.6C302.2 72.2 305.0 71.3 306.2 70.7C307.4 70.0 310.1 69.5 312.2 69.5C314.3 69.4 317.1 68.8 318.5 68.0C320.0 67.1 324.0 66.5 328.5 66.5C333.0 66.5 337.0 65.9 338.5 65.0C341.7 63.2 363.6 62.9 366.8 64.7C368.0 65.3 373.2 66.0 378.5 66.3C383.7 66.5 388.9 67.2 390.0 67.8C391.1 68.4 394.0 69.2 396.5 69.6C401.3 70.3 403.5 71.0 415.5 75.7C434.5 83.2 448.4 91.1 469.5 106.6C476.6 111.8 500.8 135.7 504.7 141.5C506.4 144.0 509.7 148.1 511.9 150.6C514.2 153.1 516.8 156.4 517.7 158.1C518.7 159.7 522.0 165.1 525.1 170.0C530.6 178.9 552.5 221.5 552.5 223.5C552.5 224.4 559.4 240.3 563.3 248.4C565.5 252.9 573.0 260.5 577.7 262.9C581.8 265.1 580.8 265.4 599.0 257.3C604.0 255.1 609.4 252.9 611.0 252.5C614.8 251.5 620.1 249.6 624.3 247.9C626.1 247.1 629.8 246.5 632.6 246.5C635.3 246.5 639.2 245.8 641.2 245.0C645.9 243.0 661.0 243.0 664.5 245.0C665.9 245.8 668.9 246.4 671.3 246.5C676.2 246.5 686.6 251.3 696.0 257.8C702.4 262.3 717.5 282.7 717.5 287.0C717.6 288.1 718.2 290.1 719.0 291.5C719.8 292.9 720.5 295.6 720.5 297.5C720.5 299.4 721.2 302.1 722.0 303.5C723.9 306.8 724.1 339.5 722.3 342.8C721.7 344.0 720.8 347.0 720.4 349.5C720.0 352.0 719.2 355.6 718.5 357.5C717.8 359.4 716.6 362.8 715.8 365.0C711.2 377.8 698.4 401.1 691.9 408.4C689.7 410.9 686.5 415.0 684.8 417.5C681.2 422.7 664.6 439.0 656.5 445.2C650.1 450.1 629.0 471.6 626.0 476.2C624.9 477.9 621.0 483.8 617.4 489.2C613.7 494.6 607.9 503.8 604.4 509.6C600.9 515.4 596.4 522.4 594.5 525.1C589.4 532.3 562.6 559.4 558.4 561.5C556.5 562.5 554.3 564.1 553.6 564.9C552.9 565.8 544.6 570.3 535.2 575.1C525.8 579.8 517.2 584.3 516.1 585.1C515.0 585.9 513.3 586.5 512.3 586.5C511.3 586.5 507.7 587.8 504.3 589.4C495.9 593.2 491.9 594.6 486.5 595.4C484.0 595.8 481.0 596.7 479.8 597.3C478.6 598.0 474.9 598.5 471.5 598.5C468.1 598.5 464.4 599.1 463.2 599.7C462.0 600.4 456.3 601.3 450.5 601.7C429.5 603.0 415.3 604.4 412.2 605.4C408.2 606.6 330.1 607.3 288.5 606.5ZM280.7 316.5C276.4 315.5 273.3 312.5 270.1 306.3C265.5 297.4 267.4 288.2 274.9 283.5C285.0 277.3 296.9 285.7 298.2 300.0C298.7 305.4 298.5 306.8 296.5 310.0C292.9 315.9 287.4 318.1 280.7 316.5ZM340.5 303.9C337.6 302.7 333.6 298.2 333.0 295.4C332.1 291.5 334.8 286.3 338.8 284.3C340.5 283.4 345.0 282.5 348.6 282.2C355.9 281.7 361.8 278.7 365.6 273.5C371.0 266.3 382.4 267.9 385.0 276.3C386.3 280.7 384.6 285.0 379.1 291.2C371.2 299.9 363.3 303.5 351.2 304.1C346.1 304.3 341.3 304.2 340.5 303.9ZM410.4 253.5C404.8 247.5 402.9 241.5 404.7 234.7C405.8 230.1 410.8 225.0 415.0 223.9C422.5 222.0 430.4 227.7 433.7 237.3C435.9 243.5 435.9 245.0 433.5 250.2C431.0 255.7 426.5 258.5 420.1 258.5C415.4 258.5 414.8 258.2 410.4 253.5Z"/><path fill="currentColor" d="M615.5 188.0C614.8 187.2 613.4 186.5 612.4 186.5C611.3 186.5 610.1 185.5 609.5 184.1C609.0 182.8 608.1 181.4 607.6 181.0C607.0 180.7 606.5 177.3 606.5 173.6C606.5 167.5 606.8 166.6 609.5 163.8C614.0 159.2 619.8 156.5 625.3 156.5C627.9 156.4 631.1 155.8 632.5 155.0C633.9 154.2 637.3 153.5 640.0 153.5C642.7 153.5 646.1 152.8 647.5 152.0C648.9 151.2 652.5 150.6 655.6 150.5C658.8 150.5 661.9 149.9 663.1 149.0C667.1 146.0 674.6 148.3 681.2 154.7C684.2 157.6 684.5 158.4 684.5 164.1C684.5 168.2 684.0 170.6 683.1 171.5C682.3 172.1 681.5 173.6 681.3 174.8C681.1 176.2 680.2 177.1 678.8 177.3C677.6 177.5 676.1 178.3 675.5 179.1C674.8 179.9 673.0 180.5 671.6 180.5C670.1 180.5 668.0 181.2 666.9 182.0C665.7 182.9 662.6 183.4 657.9 183.5C653.3 183.5 650.2 184.0 648.9 185.0C647.7 185.9 644.5 186.5 640.0 186.5C635.5 186.5 632.3 187.1 631.1 188.0C628.4 190.1 617.2 190.0 615.5 188.0ZM586.5 129.7C579.5 128.6 574.8 121.1 575.8 112.5C576.4 107.2 580.1 99.5 582.0 99.5C582.6 99.5 588.8 94.1 595.8 87.5C602.7 80.9 608.8 75.5 609.3 75.5C609.8 75.5 613.7 72.3 617.9 68.4C626.6 60.3 631.4 57.5 636.5 57.5C642.4 57.5 651.5 63.0 651.5 66.5C651.5 67.5 652.2 68.8 653.0 69.5C654.0 70.3 654.5 72.5 654.5 75.6C654.5 80.4 654.5 80.4 643.5 91.2C637.4 97.1 631.6 102.3 630.5 102.7C629.5 103.1 625.3 106.6 621.2 110.4C617.1 114.3 613.3 117.5 612.8 117.5C612.2 117.5 608.9 120.1 605.4 123.3C599.8 128.5 598.4 129.2 594.0 129.7C591.3 129.9 587.9 130.0 586.5 129.7ZM531.5 92.0C530.8 91.2 529.5 90.5 528.5 90.5C522.8 90.5 516.6 73.2 521.0 69.5C521.8 68.8 522.5 66.6 522.5 64.6C522.5 62.6 523.2 60.1 524.0 59.1C524.8 58.0 525.5 55.2 525.5 52.9C525.5 50.4 526.1 48.2 527.0 47.5C527.9 46.8 528.5 44.5 528.5 42.1C528.5 39.9 529.2 37.1 530.0 36.1C530.8 35.0 531.5 32.2 531.5 29.9C531.5 27.4 532.1 25.2 533.0 24.5C533.8 23.8 534.5 21.8 534.5 20.1C534.5 16.6 540.7 9.5 543.7 9.5C544.5 9.5 545.8 8.8 546.5 8.0C549.2 4.7 557.7 7.4 564.2 13.7C567.4 16.8 567.5 17.2 567.5 24.4C567.4 29.5 566.9 32.6 566.0 33.9C565.2 35.0 564.5 37.3 564.5 38.9C564.5 40.6 563.8 42.9 563.0 43.9C562.2 45.0 561.5 47.5 561.5 49.4C561.5 51.4 560.8 53.9 560.0 54.9C559.2 56.0 558.5 58.3 558.5 60.1C558.5 61.8 557.8 63.8 557.0 64.5C556.2 65.2 555.5 67.2 555.5 69.0C555.5 70.8 554.8 72.8 554.0 73.5C553.1 74.2 552.5 76.4 552.5 78.9C552.5 82.4 551.9 83.7 548.7 86.8C546.6 88.8 544.2 90.5 543.3 90.5C542.5 90.5 541.2 91.2 540.5 92.0C539.8 92.8 537.8 93.5 536.0 93.5C534.2 93.5 532.2 92.8 531.5 92.0Z"/></svg>